HIERARCHY
ROOT hip
{
  OFFSET 0 0 0
  CHANNELS 6 Xposition Yposition Zposition Zrotation Yrotation Xrotation
  JOINT abdomen
  {
    OFFSET 0 20.6881 -0.73152
    CHANNELS 3 Zrotation Xrotation Yrotation
    JOINT chest
    {
      OFFSET 0 11.7043 -0.48768
      CHANNELS 3 Zrotation Xrotation Yrotation
      JOINT neck
      {
        OFFSET 0 22.1894 -2.19456
        CHANNELS 3 Zrotation Xrotation Yrotation
        JOINT head
        {
          OFFSET -0.24384 7.07133 1.2192
          CHANNELS 3 Zrotation Xrotation Yrotation
          JOINT leftEye
          {
            OFFSET 4.14528 8.04674 8.04672
            CHANNELS 3 Zrotation Xrotation Yrotation
            End Site
            {
              OFFSET 1 0 0
            }
          }
          JOINT rightEye
          {
            OFFSET -3.6576 8.04674 8.04672
            CHANNELS 3 Zrotation Xrotation Yrotation
            End Site
            {
              OFFSET 1 0 0
            }
          }
        }
      }
      JOINT rCollar
      {
        OFFSET -2.68224 19.2634 -4.8768
        CHANNELS 3 Zrotation Xrotation Yrotation
        JOINT rShldr
        {
          OFFSET -8.77824 -1.95073 1.46304
          CHANNELS 3 Zrotation Xrotation Yrotation
          JOINT rForeArm
          {
            OFFSET -28.1742 -1.7115 0.48768
            CHANNELS 3 Zrotation Xrotation Yrotation
            JOINT rHand
            {
              OFFSET -22.5879 0.773209 7.07136
              CHANNELS 3 Zrotation Xrotation Yrotation
              JOINT rThumb1
              {
                OFFSET -1.2192 -0.487915 3.41376
                CHANNELS 3 Zrotation Xrotation Yrotation
                JOINT rThumb2
                {
                  OFFSET -3.37035 -0.52449 3.41376
                  CHANNELS 3 Zrotation Xrotation Yrotation
                  End Site
                  {
                    OFFSET -1.78271 -1.18214 1.43049
                  }
                }
              }
              JOINT rIndex1
              {
                OFFSET -7.75947 0.938293 5.60832
                CHANNELS 3 Zrotation Xrotation Yrotation
                JOINT rIndex2
                {
                  OFFSET -2.54057 -0.884171 1.56538
                  CHANNELS 3 Zrotation Xrotation Yrotation
                  End Site
                  {
                    OFFSET -1.62519 -0.234802 1.16502
                  }
                }
              }
              JOINT rMid1
              {
                OFFSET -8.24714 1.18213 3.41376
                CHANNELS 3 Zrotation Xrotation Yrotation
                JOINT rMid2
                {
                  OFFSET -3.10165 -0.590103 1.0647
                  CHANNELS 3 Zrotation Xrotation Yrotation
                  End Site
                  {
                    OFFSET -2.48547 -0.328903 0.83742
                  }
                }
              }
              JOINT rRing1
              {
                OFFSET -8.82822 0.546677 1.51678
                CHANNELS 3 Zrotation Xrotation Yrotation
                JOINT rRing2
                {
                  OFFSET -2.60934 -0.819778 -0.0198488
                  CHANNELS 3 Zrotation Xrotation Yrotation
                  End Site
                  {
                    OFFSET -2.33842 -0.294052 0.168128
                  }
                }
              }
              JOINT rPinky1
              {
                OFFSET -8.27202 -0.0477905 -0.4584
                CHANNELS 3 Zrotation Xrotation Yrotation
                JOINT rPinky2
                {
                  OFFSET -1.82734 -0.647385 -0.700984
                  CHANNELS 3 Zrotation Xrotation Yrotation
                  End Site
                  {
                    OFFSET -1.69225 -0.51767 -0.607171
                  }
                }
              }
            }
          }
        }
      }
      JOINT lCollar
      {
        OFFSET 2.68224 19.2634 -4.8768
        CHANNELS 3 Zrotation Xrotation Yrotation
        JOINT lShldr
        {
          OFFSET 8.77824 -1.95073 1.46304
          CHANNELS 3 Zrotation Xrotation Yrotation
          JOINT lForeArm
          {
            OFFSET 28.1742 -1.7115 0.48768
            CHANNELS 3 Zrotation Xrotation Yrotation
            JOINT lHand
            {
              OFFSET 22.5879 0.773209 7.07136
              CHANNELS 3 Zrotation Xrotation Yrotation
              JOINT lThumb1
              {
                OFFSET 1.2192 -0.487915 3.41376
                CHANNELS 3 Zrotation Xrotation Yrotation
                JOINT lThumb2
                {
                  OFFSET 3.37035 -0.52449 3.41376
                  CHANNELS 3 Zrotation Xrotation Yrotation
                  End Site
                  {
                    OFFSET 1.78271 -1.18214 1.43049
                  }
                }
              }
              JOINT lIndex1
              {
                OFFSET 7.75947 0.938293 5.60832
                CHANNELS 3 Zrotation Xrotation Yrotation
                JOINT lIndex2
                {
                  OFFSET 2.54057 -0.884171 1.56538
                  CHANNELS 3 Zrotation Xrotation Yrotation
                  End Site
                  {
                    OFFSET 1.62519 -0.234802 1.16502
                  }
                }
              }
              JOINT lMid1
              {
                OFFSET 8.24714 1.18213 3.41376
                CHANNELS 3 Zrotation Xrotation Yrotation
                JOINT lMid2
                {
                  OFFSET 3.10165 -0.590103 1.0647
                  CHANNELS 3 Zrotation Xrotation Yrotation
                  End Site
                  {
                    OFFSET 2.48547 -0.328903 0.83742
                  }
                }
              }
              JOINT lRing1
              {
                OFFSET 8.82822 0.546677 1.51678
                CHANNELS 3 Zrotation Xrotation Yrotation
                JOINT lRing2
                {
                  OFFSET 2.60934 -0.819778 -0.0198488
                  CHANNELS 3 Zrotation Xrotation Yrotation
                  End Site
                  {
                    OFFSET 2.33842 -0.294052 0.168128
                  }
                }
              }
              JOINT lPinky1
              {
                OFFSET 8.27202 -0.0477905 -0.4584
                CHANNELS 3 Zrotation Xrotation Yrotation
                JOINT lPinky2
                {
                  OFFSET 1.82734 -0.647385 -0.700984
                  CHANNELS 3 Zrotation Xrotation Yrotation
                  End Site
                  {
                    OFFSET 1.69225 -0.51767 -0.607171
                  }
                }
              }
            }
          }
        }
      }
    }
  }
  JOINT rButtock
  {
    OFFSET -8.77824 4.35084 1.2192
    CHANNELS 3 Zrotation Xrotation Yrotation
    JOINT rThigh
    {
      OFFSET 0 -1.70687 -2.19456
      CHANNELS 3 Zrotation Xrotation Yrotation
      JOINT rShin
      {
        OFFSET 0 -36.8199 0.73152
        CHANNELS 3 Zrotation Xrotation Yrotation
        JOINT rFoot
        {
          OFFSET 0.73152 -45.1104 -5.12064
          CHANNELS 3 Zrotation Xrotation Yrotation
          End Site
          {
            OFFSET -1.1221 -3.69964 12.103
          }
        }
      }
    }
  }
  JOINT lButtock
  {
    OFFSET 8.77824 4.35084 1.2192
    CHANNELS 3 Zrotation Xrotation Yrotation
    JOINT lThigh
    {
      OFFSET 0 -1.70687 -2.19456
      CHANNELS 3 Zrotation Xrotation Yrotation
      JOINT lShin
      {
        OFFSET 0 -36.8199 0.73152
        CHANNELS 3 Zrotation Xrotation Yrotation
        JOINT lFoot
        {
          OFFSET -0.73152 -45.1104 -5.12064
          CHANNELS 3 Zrotation Xrotation Yrotation
          End Site
          {
            OFFSET 1.1221 -3.69964 12.103
          }
        }
      }
    }
  }
}
MOTION
Frames:	4
Frame Time:	0.03333
0.06042150780558586 34.31776463985443 0.020079687237739563 -3.2022809982299805 0.7434555292129517 6.018200874328613 -1.721944808959961 14.079646110534668 4.862347602844238 2.708099842071533 -9.049647331237793 1.4051634073257446 -4.945211410522461 14.14724349975586 -3.3798415660858154 8.017823219299316 -24.134952545166016 -4.354105472564697 -0.05716411769390106 -0.004093463532626629 0.01042658556252718 0.04898631572723389 -0.07586242258548737 0.0703982338309288 0.019650351256132126 -0.009266340173780918 -0.005750803276896477 51.861549377441406 39.401023864746094 10.735404014587402 -28.109317779541016 -32.76396942138672 72.31719207763672 0.30169063806533813 1.3596069812774658 0.13585375249385834 0.05201253294944763 -0.08515243232250214 -0.0784938782453537 0.005513443611562252 0.10301179438829422 0.01596437580883503 -0.08155954629182816 -0.0023353169672191143 -0.046432822942733765 7.778928756713867 5.417184829711914 0.40275633335113525 -0.031228164210915565 -0.01692613959312439 -0.08867352455854416 2.9035849571228027 0.9578841328620911 0.06974197179079056 0.08120346814393997 0.009946897625923157 -0.03463992848992348 10.249077796936035 0.7308517098426819 -0.024304769933223724 -0.03686651214957237 0.08025168627500534 0.03123190626502037 2.20654034614563 -0.7335158586502075 -0.2479189783334732 0.061276283115148544 0.021291077136993408 -0.0028425203636288643 -56.79568099975586 36.86723327636719 -23.950397491455078 28.067115783691406 -33.77128982543945 -73.66429138183594 0.26937949657440186 -18.423654556274414 2.821777582168579 0.008398384787142277 -0.1173093244433403 -0.03698945418000221 -0.01290498673915863 0.05339159071445465 -0.10125900059938431 -0.09017730504274368 -0.05020246282219887 -0.03546841815114021 -7.7663092613220215 5.41560173034668 -0.41408771276474 -0.03822287917137146 0.00482532661408186 -0.013828503899276257 -2.9109485149383545 0.9993606805801392 -0.1583610475063324 -0.04428038001060486 0.0686744749546051 -0.010393976233899593 -10.258916854858398 0.748542845249176 -0.0694698914885521 0.031709153205156326 -0.03279995173215866 0.04942147433757782 -2.2649166584014893 -0.6327513456344604 0.12379691004753113 -0.03333877772092819 0.013296916149556637 0.025595389306545258 -28.368389129638672 -43.77312469482422 -23.42136573791504 -1.340140461921692 67.7210464477539 2.0545740127563477 -4.561607360839844 -13.6550931930542 -13.6841402053833 -0.0030061230063438416 0.03364008665084839 -0.027010591700673103 38.95844650268555 -46.76061248779297 30.498228073120117 2.508366346359253 70.36959075927734 -3.280917167663574 3.792600154876709 -11.15493106842041 13.099005699157715
0.04419023171067238 53.01961898803711 0.06028534844517708 -3.909177541732788 2.0218334197998047 6.12327241897583 -1.8422930240631104 14.084224700927734 5.706542015075684 2.5265815258026123 -8.867319107055664 1.5622411966323853 -5.149884223937988 14.200716972351074 -3.3206498622894287 7.449517250061035 -23.97461700439453 -4.203885555267334 -0.07961646467447281 0.0831504762172699 -0.01932954043149948 0.09188196063041687 -0.046430375427007675 -0.03754289075732231 -0.01956557109951973 -0.04715001955628395 -0.014184652827680111 53.341495513916016 41.20011901855469 8.738150596618652 -27.709453582763672 -33.74752426147461 74.11939239501953 1.0472923517227173 0.9597628116607666 -0.0458681620657444 0.037494808435440063 0.05712822079658508 -0.0019520650384947658 -0.08836349099874496 0.08777601271867752 0.006368269678205252 -0.04025685414671898 -0.0977906584739685 -0.06606168299913406 7.773271560668945 5.451760768890381 0.40521523356437683 -0.07847587019205093 0.05950244516134262 0.02979959547519684 2.9417946338653564 0.866695761680603 0.10489515215158463 0.08972179144620895 0.12188366800546646 -0.057246867567300797 10.271754264831543 0.6752938032150269 0.05136408284306526 0.005924615543335676 0.09765448421239853 0.09044559299945831 2.1375784873962402 -0.7273358106613159 -0.18266254663467407 0.08054274320602417 0.1008710041642189 -0.05460831895470619 -57.938846588134766 34.8774299621582 -22.68665313720703 28.05352783203125 -32.63657760620117 -72.57255554199219 0.0988810807466507 -19.311174392700195 2.991614818572998 0.03675030544400215 -0.004607261158525944 0.025856271386146545 0.0653291791677475 0.027871236205101013 -0.0821273997426033 -0.039517682045698166 -0.07609744369983673 0.013193479739129543 -7.735867977142334 5.454893112182617 -0.3985607922077179 0.02300886996090412 0.08329009264707565 -0.006011489313095808 -2.894036054611206 1.046966314315796 -0.14048443734645844 0.061726272106170654 0.0748976543545723 0.05612557753920555 -10.36238956451416 0.7979316711425781 0.014285881072282791 -0.011455284431576729 0.05831141024827957 0.04566534236073494 -2.254431962966919 -0.6968545317649841 0.18468894064426422 -0.0012509055668488145 0.11710891872644424 -0.0013122850796207786 -26.20969009399414 -40.494842529296875 -20.599777221679688 -0.7428957223892212 66.70755004882812 1.8129857778549194 -3.9365322589874268 -14.369976997375488 -13.137247085571289 -0.02001199871301651 -0.013873360119760036 0.00529571482911706 39.822322845458984 -49.228233337402344 30.356637954711914 2.333073139190674 70.07920837402344 -3.590956926345825 3.137120485305786 -10.628308296203613 12.629009246826172
0.08726781234145164 64.01019096374512 0.12016920372843742 -9.460441589355469 -26.212678909301758 7.405990123748779 6.0399298667907715 9.37292766571045 10.371986389160156 1.5251257419586182 -8.059751510620117 2.074570894241333 -5.479466438293457 14.056952476501465 -4.465166091918945 10.015225410461426 -21.368404388427734 -9.220659255981445 0.002450337167829275 -0.09119538962841034 0.015140959993004799 -0.056269872933626175 -0.011396576650440693 0.06297007203102112 -0.05777105316519737 -0.07776357233524323 -0.06810792535543442 67.65259552001953 38.490718841552734 0.3207275867462158 -18.237667083740234 -11.111105918884277 35.65322494506836 0.5324974060058594 10.630173683166504 1.3217853307724 0.0690726712346077 -0.02188284322619438 -0.00030964630423113704 0.012745793908834457 -0.011168285273015499 0.029108688235282898 0.024024827405810356 -0.06312859803438187 0.020102811977267265 7.661581039428711 5.465468883514404 0.38251885771751404 0.031713034957647324 0.02096625231206417 0.03322955593466759 2.9595048427581787 0.8623411059379578 0.04697968065738678 0.0228754673153162 0.0032505083363503218 -0.1186981201171875 10.329628944396973 0.7548633813858032 0.010476842522621155 -0.09174121171236038 -0.03841283544898033 0.09570852667093277 2.3587822914123535 -0.6964902877807617 -0.23032382130622864 0.018618283793330193 0.03012070432305336 0.13610537350177765 -72.69345092773438 16.294652938842773 -8.221477508544922 11.911568641662598 -5.731846809387207 -22.44120979309082 0.012969487346708775 19.97871208190918 -2.5710315704345703 0.055098194628953934 -0.09996959567070007 0.08882150053977966 0.07052493840456009 0.018961604684591293 0.0540681928396225 0.04447096213698387 0.04745975136756897 0.018851853907108307 -7.825496673583984 5.596573829650879 -0.4541400671005249 0.01538662239909172 0.008430047892034054 0.15391196310520172 -2.8329195976257324 1.0362964868545532 -0.14432170987129211 -0.1309741586446762 0.003993765916675329 0.014304972253739834 -10.12449836730957 0.6414549946784973 -0.09724873304367065 0.05381913483142853 -0.05000682547688484 0.0033049816265702248 -2.3345465660095215 -0.755291223526001 0.13131673634052277 -0.042673259973526 -0.008555158041417599 0.002928489586338401 -10.727803230285645 7.509410858154297 -4.7503838539123535 -0.13774225115776062 40.42344665527344 1.4134107828140259 -11.1424560546875 -19.824764251708984 -30.87693214416504 0.1604636013507843 0.030115213245153427 0.010632570832967758 62.69581985473633 -52.727840423583984 56.396732330322266 3.835139513015747 73.52459716796875 -4.3148512840271 0.9291301369667053 -8.482297897338867 0.8649227619171143
0.1703939400613308 65.95141887664795 0.16772793605923653 -9.142436027526855 -26.2263126373291 7.364834785461426 6.51688289642334 9.044076919555664 10.902484893798828 1.0072972774505615 -7.372713565826416 2.665968179702759 -6.034560680389404 14.15087890625 -5.782644271850586 10.9920654296875 -21.446796417236328 -10.561470985412598 -2.7909230993827805e-05 -0.017351267859339714 -0.09456489980220795 -0.032276690006256104 -0.07714702934026718 0.047534845769405365 0.056114375591278076 -0.05154275894165039 -0.03585732355713844 67.37783813476562 38.5943717956543 1.8003005981445312 -16.93463897705078 -9.718791007995605 32.30093765258789 0.27463963627815247 11.286131858825684 1.5957868099212646 0.04667912423610687 -0.08907286077737808 -0.006047830916941166 0.016720151528716087 0.008206947706639767 0.05346178635954857 0.03759485110640526 -0.09921996295452118 -0.06560032069683075 7.6653523445129395 5.516751766204834 0.3804606795310974 0.051748126745224 0.01808198168873787 -0.016353588551282883 2.9885082244873047 0.85466468334198 0.031860072165727615 0.0964072048664093 0.04751911386847496 -0.12245990335941315 10.341802597045898 0.7058571577072144 0.02502812258899212 -0.045289237052202225 -0.018426405265927315 0.06445268541574478 2.319298267364502 -0.7003254294395447 -0.13675276935100555 0.11110397428274155 0.03511121869087219 0.04320070520043373 -72.6944580078125 16.89900779724121 -8.370168685913086 10.493733406066895 -4.351519584655762 -18.876651763916016 0.2691003084182739 21.506908416748047 -3.0134665966033936 0.02817566879093647 -0.09119150042533875 0.04905626177787781 0.06407349556684494 0.003823021659627557 0.0912635400891304 -0.03534895181655884 0.0007628063904121518 -0.04020299017429352 -7.758791923522949 5.61151647567749 -0.39893969893455505 -0.015367173589766026 0.019837388768792152 0.1440223753452301 -2.8221020698547363 1.0380327701568604 -0.189889594912529 -0.023622550070285797 0.007791642565280199 0.01961575262248516 -10.158304214477539 0.6631951332092285 -0.09856900572776794 0.04272355139255524 -0.094761423766613 -0.09783904999494553 -2.3996479511260986 -0.68470299243927 0.12879745662212372 -0.05878042057156563 -0.060640837997198105 0.0022323159500956535 -10.43026351928711 8.497034072875977 -4.709365367889404 0.12097476422786713 34.00657653808594 1.4914811849594116 -11.557138442993164 -19.479480743408203 -31.339052200317383 0.15176130831241608 -0.03913078457117081 -0.016586584970355034 63.28449249267578 -51.62415313720703 57.92728805541992 3.995009183883667 75.76499938964844 -4.598406791687012 1.0805206298828125 -9.593534469604492 1.602373719215393
